<svg xmlns="http://www.w3.org/2000/svg" width="106" height="106" viewBox="0 0 106 106" fill="none"><path d="M83.1437 31.6344L71.2188 19.7094C70.7219 19.2125 70.0594 19.2125 69.7281 19.7094C69.2312 20.2062 69.2312 20.8687 69.7281 21.2L72.0469 23.5187L66.7469 28.8187L61.4469 23.5187C60.95 23.0219 60.2875 23.0219 59.9563 23.5187C59.4594 24.0156 59.4594 24.6781 59.9563 25.0094L62.6062 27.6594L59.625 30.6406C60.4531 31.4688 62.4406 33.6219 63.4344 34.45C63.9312 34.9469 63.9312 35.6094 63.4344 35.9406C62.9375 36.4375 62.275 36.4375 61.9438 35.9406L58.1344 32.1312L55.3188 34.9469C56.1469 35.775 58.1344 37.9281 59.1281 38.7562C59.625 39.2531 59.625 39.9156 59.1281 40.2469C58.6313 40.7437 57.9688 40.7437 57.6375 40.2469L53.8281 36.4375L51.0125 39.2531L54.8219 43.0625C55.3187 43.5594 55.3187 44.2219 54.8219 44.5531C54.325 45.05 53.6625 45.05 53.3313 44.5531L49.5219 40.7438L39.2531 51.0125C37.7625 52.5031 37.5969 54.9875 38.9219 56.6438L34.9469 60.6187C33.125 62.275 32.9594 65.0906 34.2844 67.0781L23.1875 78.175C22.6906 78.6719 22.6906 79.3344 23.1875 79.6656C23.6844 80.1625 24.3469 80.1625 24.6781 79.6656L35.775 68.5688C37.7625 69.8938 40.5781 69.5625 42.2344 67.9062L46.2094 63.9312C47.8656 65.2562 50.35 65.0906 51.8406 63.6L75.1938 40.2469L77.8438 42.8969C78.3406 43.3937 79.0031 43.3937 79.3344 42.8969C79.8313 42.4 79.8313 41.7375 79.3344 41.4062L74.0344 36.1062L79.3344 30.8063L81.6531 33.125C82.15 33.6219 82.8125 33.6219 83.1437 33.125C83.6406 32.6281 83.6406 31.9656 83.1437 31.6344ZM50.1844 62.1094C49.3562 62.9375 47.8656 62.9375 47.0375 62.1094C47.0375 62.1094 46.8719 61.9437 46.7063 61.7781L40.4125 55.4844C39.5844 54.6562 39.5844 53.3313 40.4125 52.5031L41.9031 51.0125L59.2937 52.6687L50.0188 61.9438L50.1844 62.1094ZM77.6781 29.3156L72.3781 34.6156L68.2375 30.475L73.5375 25.175L77.6781 29.4812V29.3156Z" fill="white"></path><path d="M53 0C23.6844 0 0 23.6844 0 53C0 82.3156 23.6844 106 53 106C82.3156 106 106 82.3156 106 53C106 23.6844 82.3156 0 53 0ZM53 96.3938C29.15 96.3938 9.60625 77.0156 9.60625 53.1656C9.60625 43.2281 12.9187 33.7875 19.0469 26.0031L79.9969 86.9531C72.3781 93.0813 62.7719 96.3938 53 96.3938ZM26.0031 19.2125C44.7188 4.30625 71.8812 7.2875 86.9531 26.0031C99.7063 41.9031 99.7063 64.4281 86.9531 80.1625L26.0031 19.2125Z" fill="white"></path></svg>