<svg xmlns="http://www.w3.org/2000/svg" viewBox="0 0 755.25 557.1"><defs><style>.cls-2{fill:#86c63c;}</style></defs><g><g><path class="cls-2" d="M377.17,271.96c6.89-5.4,13.45-10.96,20.44-15.94,18.56-13.21,39.18-22.41,60.37-30.45,31.67-12.01,64.47-19.57,97.8-25.08,3.63-.6,7.06-1.03,11.47-1.47-2.77,2.4-5.78,5.11-8.61,7.43-22.35,18.3-46.96,32.79-73.93,43.16-6.31,2.43-12.8,4.44-19.31,6.3-2.13.61-4.65.53-6.85.07-4.5-.92-8.9-2.31-14-3.69,10.7-5.87,20.82-11.43,31.61-17.35-17.09.59-71.02,30.98-86.28,48.22,3.44,3.99,6.89,7.99,10.55,12.23-5.03,3.51-9.74,6.79-14.49,10.11-2.79-3.82-5.47-7.49-8.43-11.55-2.94,4.11-5.5,7.7-8.18,11.45-4.83-3.3-9.58-6.54-14.59-9.97,3.54-4.19,6.9-8.18,10.26-12.16-14.56-17.01-65.57-46.09-85.06-47.9,10,5.56,20,11.12,30.5,16.96-8.28,1.57-15.36,5.66-24.42,2.74-36.12-11.62-68.29-29.87-96.65-54.98-.31-.28-.67-.52-1.73-1.5,6.41,1.06,12.42,1.98,18.09,2.95,27.4,4.68,54.4,11,80.69,20.1,19.5,6.75,38.6,14.47,56.49,24.92,10.66,6.23,20.62,13.4,29.83,21.62,1.48,1.32,3.02,2.57,4.44,3.77Z"></path><path class="cls-2" d="M163.64,124.67c2.81,1.88,4.99,3.32,7.15,4.79,22.72,15.48,45.47,30.91,68.13,46.47,12.24,8.41,22,19.26,30.17,31.6.5.75,2.29,2.78,3.2,4.47-3.49-1.15-9.37-3.21-12.46-5.03-19.61-11.52-37.74-24.11-54.92-39.04-.2-.17-2.18-1.78-2.18-1.78,2.95,4.04,6.63,7.91,9.73,11.13,3.2,3.32,6.51,6.54,9.96,9.6,3.38,3,6.92,5.82,10.5,8.58,3.63,2.8,7.38,5.43,10.99,8.55-4.18-.87-8.36-1.77-12.55-2.6-6.47-1.28-12.95-2.49-19.41-3.81-1.1-.23-2.25-.7-3.14-1.38-13.69-10.37-23.79-23.77-31.43-38.93-4.83-9.58-8.16-19.02-12.38-28.9-.31-.73-.71-1.82-1.35-3.73Z"></path><path class="cls-2" d="M512.09,203.76c14.67-10.75,28.53-22.24,39.64-36.77-4.09,3.29-8.02,6.78-12.29,9.82-13.75,11.56-25.6,19.59-39.92,28.05-4.44,3.17-9.39,4.36-15.11,4.72,4.07-5.23,8.02-10.55,12.22-15.66,8.83-10.77,20.21-18.58,31.54-26.35,19.69-13.5,39.55-26.73,59.34-40.07,1.19-.81,2.44-1.54,4.09-2.58-.47,1.67-.73,2.94-1.17,4.15-6.26,17.55-14.24,34.18-25.67,49.03-5.33,6.92-11.51,12.97-18.34,18.39-.47.37-1.09.66-1.68.78-10.44,2.15-20.89,4.28-31.34,6.39-.43.09-.89.07-1.33.11Z"></path><path class="cls-2" d="M249.59,156.67c-4.4-13.06-7.03-26-9.23-39.04-2.19,21.41,3.38,41.35,12.21,61.42-4.82-3.58-8.69-7.26-13.24-9.63-8.13-4.25-10.81-11.63-12.7-19.61-5.42-22.86-.9-44.1,10.84-64.06,1.96-3.32,4.24-6.46,6.74-10.23.61,1.89,1,3.11,1.4,4.32,4.09,12.44,8.12,24.9,12.29,37.31,3.53,10.53,2.39,20.43-3.33,29.93-1.76,2.93-3.16,6.08-4.97,9.61Z"></path><path class="cls-2" d="M510.87,75.75c4.83,5.85,8.28,11.97,11.31,18.33,10.6,22.25,11.53,44.87,2.41,67.83-.29.74-.61,1.62-1.2,2.06-6.6,4.91-13.26,9.74-20.59,15.09,8.71-20.06,14.29-40.06,12.49-61.86-3.02,13.3-5.94,26.18-8.87,39.06-8.05-12.39-14.41-24.76-8.96-39.77,3.88-10.7,7.33-21.56,10.92-32.36.87-2.62,1.58-5.3,2.5-8.39Z"></path><path class="cls-2" d="M232.6,0c.26,5.73.33,13.77,1.04,20.11,1.37,12.13,2.94,24.23,4.76,36.3.5,3.33.25,6.27-1.25,9.16-2.71,5.21-5.51,10.38-8.23,15.58-1.86,3.56-3.67,7.15-5.69,11.11-2.65-16.29-1.98-32.35-2.16-48.38-5.1,21.52-4.4,43.23-1.44,65.01-4.16-7.26-9.57-13.99-12.76-21.65-2.97-7.15-3.07-15.18-2.75-23.02,1-24.37,11.09-44.8,27.07-62.69.23-.26.71-.91,1.41-1.54Z"></path><path class="cls-2" d="M536.71,106.62c1.86-21.13,2.57-42.07-2.13-62.92-.51,16.7-1.03,33.31-1.54,49.92-2.36-4.5-4.69-9-7.06-13.49-2.66-5.03-5.59-9.93-7.92-15.11-1.05-2.33-1.63-5.31-1.22-7.79,3.1-18.65,5.4-37.79,5.73-57.14.83.74,1.21,1.18,1.51,1.53,13.12,15.06,22.8,31.86,26.08,51.87,1.67,10.18,1.49,20.34-.57,30.47-1.38,6.79-6.16,11.77-9.35,17.6-.98,1.79-2.35,3.38-3.54,5.06Z"></path><path class="cls-2" d="M348.61,243.02c-10.45-5.12-19.39-11.55-30.28-15.51-15.5-5.64-27.38-15.4-38.01-27.66.94,1.92,1.78,3.9,2.83,5.75,1.16,2.04,2.45,4.01,3.79,5.94,1.29,1.85,2.78,3.91,4.59,6.19-1.42-.5-3.65-1.1-4.95-1.83-20.65-11.63-32.26-39.16-26.27-62.12.06-.24.16-.47.28-.82,2.07,3.29,3.92,6.58,6.1,9.64,8.86,12.41,19.77,22.88,31.91,31.93,10.56,7.87,21.76,14.88,32.67,22.28.44.3.91.62,1.21,1.05,5.64,7.96,9.56,15.93,15.17,23.91.24.34.88,1.13.93,1.25Z"></path><path class="cls-2" d="M559.47,104.22c-6.91,14.14-13.72,28.35-22.9,41.31,2.23-9.68,2.71-19.36,1.26-29.14-.13-.87.24-1.96.71-2.76,11.22-19.09,22.49-38.15,33.75-57.21.04-.07.5-.9.5-.9.74,3.68,1.68,7.52,2.27,10.99,3.23,19.11,2.95,38.03-3.57,56.5-1.53,4.32-3.84,8.36-5.85,12.51-.3.61-.84,1.19-1.41,1.57-8.51,5.66-17.04,11.28-25.57,16.9-.11.07-.2.17-1.34.8,9.6-15.72,17.92-32.71,22.16-50.57Z"></path><path class="cls-2" d="M218.95,145.36c-9.02-12.77-16.38-27.11-22.98-41.08,4.31,17.77,11.75,34.18,21.32,49.9-1.24-.76-2.5-1.48-3.71-2.28-7.48-4.93-14.95-9.86-22.4-14.82-.65-.43-1.28-1.03-1.66-1.7-6.48-11.46-9.72-23.84-10.7-36.93-1.05-13.93.16-27.63,3.38-41.19.08-.32.24-1.1.41-1.75.46.73.6,1.11.75,1.37,10.97,18.61,21.97,37.21,32.85,55.88.84,1.44,1.39,3.44,1.16,5.05-1.25,8.73-.71,17.32,1.16,25.88.07.34.29.98.44,1.67Z"></path><path class="cls-2" d="M463.69,217.67c6.54-6.71,9.87-13.03,12.11-18.18l1.18-2.37c-3.21,3.54-7.91,9.44-11.48,12.57-5.15,4.51-10.65,8.66-16.26,12.6-2.22,1.56-5.11,2.22-7.72,3.19-12.24,4.57-23.72,10.64-34.9,17.33-.28.17-1.83.89-2.12,1.03l1.04-1.65c3.86-5.72,7.54-10.77,11.13-16.65,4.45-7.31,11.75-10.99,18.51-15.41,15.93-10.42,31.16-21.78,43.99-35.94,5.84-6.45,10.78-13.71,15.93-20.36,3.55,16.28.51,31.95-9.4,46.15-5.4,7.73-12.7,14.15-22,17.68Z"></path><path class="cls-2" d="M346.24,220.4c1.19.89,2.98,2.19,4.09,3.1,7.23,6.42,14.28,12.4,21.42,18.93,2,1.83,3.83,3.83,5.88,5.9,10.32-9.53,19.34-18.41,30.13-27.49,2.78-2.12,5.27-4.05,5.27-4.05-.75,2.33-4.62,9.33-5.85,11.53-7.14,12.77-15.61,22.65-25.92,33.08-3.17,3.21-4.26,3.49-7.25,0-6.69-7.82-13.07-13.89-19.24-22.13-3.07-4.09-5.38-8.77-7.86-13.28-.78-1.42-3.31-6.4-4.07-8.22,0,0,2.3,1.78,3.41,2.62Z"></path><path class="cls-2" d="M377.64,195.55c5.84,9.5,11.39,18.54,16.87,27.45-5.74,5.74-11.33,11.33-16.99,17-5.38-5.58-10.81-11.21-16.51-17.12,5.22-8.57,10.75-17.65,16.64-27.33Z"></path></g><g><rect class="cls-2" x="372.25" y="104.75" width="10.75" height="70.7" transform="translate(517.72 -237.52) rotate(90)"></rect><rect class="cls-2" x="447" y="115.25" width="10.75" height="49.69" rx="1.32" ry="1.32" transform="translate(904.75 280.2) rotate(180)"></rect><rect class="cls-2" x="432.07" y="109.93" width="10.75" height="60.34" rx="1.32" ry="1.32" transform="translate(874.9 280.2) rotate(180)"></rect><rect class="cls-2" x="417.15" y="105.09" width="10.75" height="70.01" rx="1.32" ry="1.32" transform="translate(845.05 280.2) rotate(180)"></rect><path class="cls-2" d="M461.32,135.33h10.75v8.21c0,.73-.59,1.32-1.32,1.32h-8.1c-.73,0-1.32-.59-1.32-1.32v-8.21h0Z" transform="translate(326.6 606.79) rotate(-90)"></path><rect class="cls-2" x="297.5" y="115.25" width="10.75" height="49.69" rx="1.32" ry="1.32"></rect><rect class="cls-2" x="312.42" y="109.93" width="10.75" height="60.34" rx="1.32" ry="1.32"></rect><rect class="cls-2" x="327.35" y="105.09" width="10.75" height="70.01" rx="1.32" ry="1.32"></rect><path class="cls-2" d="M283.18,135.33h10.75v8.21c0,.73-.59,1.32-1.32,1.32h-8.1c-.73,0-1.32-.59-1.32-1.32v-8.21h0Z" transform="translate(428.65 -148.45) rotate(90)"></path></g></g></svg>