<svg xmlns="http://www.w3.org/2000/svg" id="Camada_2" data-name="Camada 2" viewBox="0 325 755.25 232.1"><defs><style>      .cls-1 {        fill: #efefef;      }      .cls-2 {        fill: #86c63c;      }    </style></defs><g id="Camada_1-2" data-name="Camada 1"><g><g><polygon class="cls-1" points="82.4 395.11 81 395.11 25.18 339.29 0 339.29 0 347.83 25.18 373.01 81 428.83 106.18 428.83 106.18 339.29 82.4 339.29 82.4 395.11"></polygon><path class="cls-1" d="M0,399.73v29.1h24.48l-.98-29.8c-.21-5.7,4.11-8.24,7.65-7.15l-13.18-13.18c-9.78-.48-17.98,7.41-17.98,21.03Z"></path><path class="cls-1" d="M158.24,339.29l-46.45,89.54h26.86l7.69-14.97h53.58l7.83,14.97h26.86l-46.45-89.54h-29.94ZM158.38,390.78l14.13-27.28h1.4l14.13,27.28h-29.66Z"></path><path class="cls-1" d="M212.95,362.38h39.17v66.45h23.78v-47.47c-4.27-17.77-15.67-18.99-15.67-18.99h54.85v-23.08h-102.13v23.08Z"></path><path class="cls-1" d="M399.17,385.88c0,14.13-7.14,21.26-21.54,21.26h-6.51c-14.41,0-22.94-7.83-22.94-21.26v-46.59h-23.78v46.73c0,28.12,15.95,44.21,43.79,44.21h9.58c28.96,0,45.19-15.95,45.19-44.21v-46.73h-23.78v46.59Z"></path><path class="cls-1" d="M535.86,370.63c0-19.3-14.83-31.34-38.47-31.34h-64.63v23.08h66.45c8.25,0,11.47,2.94,11.47,8.25,0,5.04-2.52,8.25-11.05,8.25h-26.44c-1.12,0-2.26-.02-3.39-.05h0c-29.74.68-35.97,21.31-37.04,33.57v8.8c0,.08.02.13.02.13l-.02.03v7.47h23.78v-14.64c0-6.99,3.48-12.11,9.71-12.22h20.51l19.45,26.86h29.52l-21.41-29.38c13.43-3.5,21.55-14.41,21.55-28.82Z"></path><path class="cls-1" d="M585.12,339.29l-46.45,89.54h26.86l7.69-14.97h53.58l7.83,14.97h26.86l-46.45-89.54h-29.94ZM585.26,390.78l14.13-27.28h1.4l14.13,27.28h-29.66Z"></path><polygon class="cls-1" points="689.49 405.75 689.49 339.29 665.71 339.29 665.71 428.83 755.25 428.83 755.25 405.75 689.49 405.75"></polygon></g><g><polygon class="cls-2" points="117.95 499.69 125.53 499.69 125.53 490.5 137.32 490.5 137.32 484.65 125.53 484.65 125.53 478.79 138.93 478.79 138.93 472.89 117.95 472.89 117.95 499.69"></polygon><rect class="cls-2" x="152.06" y="472.89" width="7.58" height="26.8"></rect><polygon class="cls-2" points="172.04 478.9 180.28 478.9 180.28 499.69 187.86 499.69 187.86 478.9 196.05 478.9 196.05 472.89 172.04 472.89 172.04 478.9"></polygon><polygon class="cls-2" points="226.53 487.17 214.73 472.89 208.49 472.89 208.49 499.69 215.88 499.69 215.88 485.41 227.71 499.69 233.96 499.69 233.96 472.89 226.53 472.89 226.53 487.17"></polygon><polygon class="cls-2" points="256.39 488.9 268.3 488.9 268.3 483.27 256.39 483.27 256.39 478.79 269.91 478.79 269.91 472.89 248.92 472.89 248.92 499.69 270.4 499.69 270.4 493.8 256.39 493.8 256.39 488.9"></polygon><path class="cls-2" d="M302.47,485.81c-.9-.57-1.89-1.03-2.97-1.38-1.07-.34-2.15-.63-3.24-.86-1.09-.23-2.07-.45-2.97-.67-.89-.22-1.62-.5-2.18-.84-.56-.34-.84-.82-.84-1.43,0-.41.14-.79.42-1.15.28-.36.74-.65,1.38-.88.64-.23,1.48-.34,2.53-.34,1.17,0,2.39.17,3.64.5,1.25.33,2.51.86,3.79,1.57l2.3-5.59c-1.3-.79-2.8-1.38-4.5-1.78-1.7-.4-3.43-.59-5.19-.59-2.63,0-4.82.4-6.58,1.19-1.76.79-3.08,1.84-3.94,3.14-.87,1.3-1.3,2.74-1.3,4.33,0,1.43.27,2.62.82,3.56.55.95,1.27,1.71,2.16,2.3.89.59,1.89,1.06,2.99,1.42,1.1.36,2.18.64,3.24.86,1.06.22,2.04.45,2.95.69.9.24,1.64.53,2.2.88.56.34.84.81.84,1.4,0,.46-.15.86-.44,1.19-.29.33-.75.59-1.38.77-.62.18-1.47.27-2.54.27-1.56,0-3.12-.25-4.69-.74-1.57-.5-2.95-1.13-4.16-1.9l-2.49,5.63c1.25.84,2.89,1.54,4.92,2.09s4.16.82,6.37.82c2.66,0,4.86-.4,6.62-1.19,1.76-.79,3.08-1.84,3.96-3.16.88-1.31,1.32-2.75,1.32-4.31,0-1.4-.28-2.57-.84-3.5-.56-.93-1.3-1.69-2.2-2.26Z"></path><path class="cls-2" d="M336.81,485.81c-.9-.57-1.89-1.03-2.97-1.38-1.07-.34-2.15-.63-3.24-.86s-2.07-.45-2.97-.67c-.89-.22-1.62-.5-2.18-.84-.56-.34-.84-.82-.84-1.43,0-.41.14-.79.42-1.15.28-.36.74-.65,1.38-.88.64-.23,1.48-.34,2.53-.34,1.17,0,2.39.17,3.64.5,1.25.33,2.51.86,3.79,1.57l2.3-5.59c-1.3-.79-2.8-1.38-4.5-1.78-1.7-.4-3.43-.59-5.19-.59-2.63,0-4.82.4-6.58,1.19-1.76.79-3.08,1.84-3.94,3.14-.87,1.3-1.3,2.74-1.3,4.33,0,1.43.27,2.62.82,3.56.55.95,1.27,1.71,2.16,2.3.89.59,1.89,1.06,2.99,1.42,1.1.36,2.18.64,3.24.86,1.06.22,2.04.45,2.95.69.9.24,1.64.53,2.2.88.56.34.84.81.84,1.4,0,.46-.15.86-.44,1.19-.29.33-.75.59-1.38.77-.62.18-1.47.27-2.54.27-1.56,0-3.12-.25-4.69-.74-1.57-.5-2.95-1.13-4.16-1.9l-2.49,5.63c1.25.84,2.89,1.54,4.92,2.09s4.16.82,6.37.82c2.66,0,4.86-.4,6.62-1.19,1.76-.79,3.08-1.84,3.96-3.16.88-1.31,1.32-2.75,1.32-4.31,0-1.4-.28-2.57-.84-3.5-.56-.93-1.3-1.69-2.2-2.26Z"></path><path class="cls-2" d="M398.35,487.06l-5.82-1.76c-.26,1.45-.71,2.68-1.24,3.81l-3.91-3.49c.49-.27.96-.53,1.37-.8,1.22-.81,2.14-1.69,2.74-2.66.6-.97.9-2.03.9-3.18,0-1.35-.35-2.51-1.05-3.46-.7-.96-1.67-1.7-2.89-2.22-1.22-.52-2.68-.78-4.36-.78-1.79,0-3.35.29-4.69.86-1.34.57-2.39,1.38-3.14,2.43-.75,1.05-1.13,2.25-1.13,3.6,0,.71.13,1.44.4,2.16.27.73.68,1.45,1.23,2.16.28.36.6.73.96,1.11-.63.36-1.25.71-1.77,1.07-1.31.92-2.28,1.93-2.91,3.02-.62,1.1-.94,2.35-.94,3.75s.47,2.72,1.4,3.87,2.2,2.05,3.81,2.7c1.61.65,3.43.98,5.47.98,2.63,0,5.01-.55,7.14-1.65.65-.33,1.26-.72,1.84-1.14l3.04,2.71,3.91-4.44-2.86-2.55c1.17-1.79,2.02-3.82,2.51-6.11ZM382.37,477.85c.42-.37,1-.56,1.74-.56s1.26.17,1.63.5c.37.33.55.77.55,1.3,0,.43-.16.86-.5,1.28-.33.42-.89.86-1.66,1.32-.2.12-.47.25-.71.37-.23-.22-.46-.44-.63-.62-.42-.45-.7-.84-.84-1.17s-.21-.66-.21-.99c0-.59.21-1.07.63-1.44ZM387.4,493.63c-1.25.73-2.62,1.09-4.1,1.09-.87,0-1.6-.13-2.2-.38-.6-.25-1.07-.6-1.4-1.03-.33-.43-.5-.9-.5-1.42,0-.64.15-1.21.46-1.72.31-.51.81-1,1.51-1.47.13-.09.31-.18.45-.27l5.81,5.18s-.02.02-.04.03Z"></path><polygon class="cls-2" points="450.58 482.96 440.28 482.96 440.28 472.89 432.7 472.89 432.7 499.69 440.28 499.69 440.28 489.24 450.58 489.24 450.58 499.69 458.16 499.69 458.16 472.89 450.58 472.89 450.58 482.96"></polygon><polygon class="cls-2" points="480.59 488.9 492.5 488.9 492.5 483.27 480.59 483.27 480.59 478.79 494.11 478.79 494.11 472.89 473.13 472.89 473.13 499.69 494.61 499.69 494.61 493.8 480.59 493.8 480.59 488.9"></polygon><path class="cls-2" d="M517,472.89l-11.83,26.8h7.73l2.11-5.24h11.33l2.11,5.24h7.89l-11.87-26.8h-7.47ZM517.24,488.9l3.44-8.57,3.44,8.57h-6.88Z"></path><polygon class="cls-2" points="555.63 472.89 548.05 472.89 548.05 499.69 568.38 499.69 568.38 493.68 555.63 493.68 555.63 472.89"></polygon><polygon class="cls-2" points="575.39 478.9 583.62 478.9 583.62 499.69 591.2 499.69 591.2 478.9 599.39 478.9 599.39 472.89 575.39 472.89 575.39 478.9"></polygon><polygon class="cls-2" points="629.72 472.89 629.72 482.96 619.42 482.96 619.42 472.89 611.84 472.89 611.84 499.69 619.42 499.69 619.42 489.24 629.72 489.24 629.72 499.69 637.3 499.69 637.3 472.89 629.72 472.89"></polygon></g><g><path class="cls-2" d="M322.87,546.75c-.12-.05-.27-.07-.4-.11.8-.41,1.45-.92,1.91-1.59.52-.75.78-1.63.78-2.62,0-1.49-.63-2.71-1.88-3.65-1.25-.94-3.16-1.41-5.72-1.41h-9.84v19.34h10.39c2.62,0,4.6-.47,5.96-1.41s2.03-2.24,2.03-3.9c0-1.11-.28-2.05-.84-2.85s-1.35-1.4-2.38-1.81ZM316.87,541.32c.92,0,1.61.15,2.07.46.46.3.69.78.69,1.42,0,.61-.23,1.07-.69,1.38-.46.31-1.15.47-2.07.47h-3.76v-3.73h3.76ZM319.85,552.28c-.48.32-1.2.48-2.16.48h-4.59v-3.92h4.59c.96,0,1.68.16,2.16.48.48.32.72.82.72,1.48s-.24,1.16-.72,1.48Z"></path><path class="cls-2" d="M352.22,548.31c.69-1.05,1.04-2.32,1.04-3.81,0-2.21-.76-3.95-2.27-5.22-1.51-1.27-3.68-1.91-6.52-1.91h-8.62v19.34h5.47v-5.14h2.96l3.51,5.14h5.86l-4.19-6.1c1.18-.55,2.12-1.31,2.77-2.3ZM346.9,542.44c.57.51.86,1.19.86,2.06s-.28,1.6-.86,2.1-1.43.75-2.57.75h-3.01v-5.67h3.01c1.14,0,2,.25,2.57.76Z"></path><path class="cls-2" d="M369.39,537.37l-8.54,19.34h5.58l1.52-3.79h8.18l1.52,3.79h5.69l-8.56-19.34h-5.39ZM369.56,548.92l2.48-6.18,2.48,6.18h-4.96Z"></path><path class="cls-2" d="M404.97,546.7c-.65-.41-1.37-.75-2.14-.99-.77-.25-1.55-.46-2.33-.62-.78-.16-1.5-.33-2.14-.48-.65-.16-1.17-.36-1.57-.61-.41-.25-.61-.59-.61-1.03,0-.3.1-.57.3-.83.2-.26.53-.47.99-.63.46-.17,1.07-.25,1.82-.25.85,0,1.72.12,2.63.36.9.24,1.81.62,2.73,1.13l1.66-4.03c-.94-.57-2.02-1-3.25-1.29-1.22-.28-2.47-.43-3.74-.43-1.9,0-3.48.29-4.75.86-1.27.57-2.22,1.33-2.85,2.27-.63.94-.94,1.98-.94,3.12,0,1.03.2,1.89.59,2.57.4.68.92,1.23,1.56,1.66.64.43,1.36.77,2.15,1.02.79.26,1.57.47,2.33.62s1.47.32,2.13.5c.65.18,1.18.39,1.59.63.41.25.61.59.61,1.01,0,.33-.11.62-.32.86-.21.24-.54.42-.99.55-.45.13-1.06.19-1.84.19-1.12,0-2.25-.18-3.38-.54-1.13-.36-2.13-.81-3-1.37l-1.8,4.06c.9.61,2.08,1.11,3.55,1.5,1.46.4,3,.59,4.6.59,1.92,0,3.51-.28,4.78-.86s2.22-1.33,2.86-2.28c.64-.95.95-1.99.95-3.11,0-1.01-.2-1.86-.61-2.53-.4-.67-.93-1.21-1.59-1.63Z"></path><rect class="cls-2" x="416.58" y="537.37" width="5.47" height="19.34"></rect><polygon class="cls-2" points="438.33 552.38 438.33 537.37 432.86 537.37 432.86 556.71 447.53 556.71 447.53 552.38 438.33 552.38"></polygon></g><g><polygon class="cls-1" points="293.51 552.19 194.99 549.82 293.51 547.45 293.51 552.19 293.51 552.19"></polygon><polygon class="cls-1" points="461.74 547.45 560.25 549.82 461.74 552.19 461.74 547.45 461.74 547.45"></polygon></g></g></g></svg>