<svg xmlns="http://www.w3.org/2000/svg" id="Camada_2" data-name="Camada 2" viewBox="0 0 755.25 557.1"><defs><style>      .cls-1 {        fill: #efefef;      }      .cls-2 {        fill: #86c63c;      }    </style></defs><g id="Camada_1-2" data-name="Camada 1"><g><g><polygon class="cls-1" points="82.4 395.11 81 395.11 25.18 339.29 0 339.29 0 347.83 25.18 373.01 81 428.83 106.18 428.83 106.18 339.29 82.4 339.29 82.4 395.11"></polygon><path class="cls-1" d="M0,399.73v29.1h24.48l-.98-29.8c-.21-5.7,4.11-8.24,7.65-7.15l-13.18-13.18c-9.78-.48-17.98,7.41-17.98,21.03Z"></path><path class="cls-1" d="M158.24,339.29l-46.45,89.54h26.86l7.69-14.97h53.58l7.83,14.97h26.86l-46.45-89.54h-29.94ZM158.38,390.78l14.13-27.28h1.4l14.13,27.28h-29.66Z"></path><path class="cls-1" d="M212.95,362.38h39.17v66.45h23.78v-47.47c-4.27-17.77-15.67-18.99-15.67-18.99h54.85v-23.08h-102.13v23.08Z"></path><path class="cls-1" d="M399.17,385.88c0,14.13-7.14,21.26-21.54,21.26h-6.51c-14.41,0-22.94-7.83-22.94-21.26v-46.59h-23.78v46.73c0,28.12,15.95,44.21,43.79,44.21h9.58c28.96,0,45.19-15.95,45.19-44.21v-46.73h-23.78v46.59Z"></path><path class="cls-1" d="M535.86,370.63c0-19.3-14.83-31.34-38.47-31.34h-64.63v23.08h66.45c8.25,0,11.47,2.94,11.47,8.25,0,5.04-2.52,8.25-11.05,8.25h-26.44c-1.12,0-2.26-.02-3.39-.05h0c-29.74.68-35.97,21.31-37.04,33.57v8.8c0,.08.02.13.02.13l-.02.03v7.47h23.78v-14.64c0-6.99,3.48-12.11,9.71-12.22h20.51l19.45,26.86h29.52l-21.41-29.38c13.43-3.5,21.55-14.41,21.55-28.82Z"></path><path class="cls-1" d="M585.12,339.29l-46.45,89.54h26.86l7.69-14.97h53.58l7.83,14.97h26.86l-46.45-89.54h-29.94ZM585.26,390.78l14.13-27.28h1.4l14.13,27.28h-29.66Z"></path><polygon class="cls-1" points="689.49 405.75 689.49 339.29 665.71 339.29 665.71 428.83 755.25 428.83 755.25 405.75 689.49 405.75"></polygon></g><g><polygon class="cls-2" points="117.95 499.69 125.53 499.69 125.53 490.5 137.32 490.5 137.32 484.65 125.53 484.65 125.53 478.79 138.93 478.79 138.93 472.89 117.95 472.89 117.95 499.69"></polygon><rect class="cls-2" x="152.06" y="472.89" width="7.58" height="26.8"></rect><polygon class="cls-2" points="172.04 478.9 180.28 478.9 180.28 499.69 187.86 499.69 187.86 478.9 196.05 478.9 196.05 472.89 172.04 472.89 172.04 478.9"></polygon><polygon class="cls-2" points="226.53 487.17 214.73 472.89 208.49 472.89 208.49 499.69 215.88 499.69 215.88 485.41 227.71 499.69 233.96 499.69 233.96 472.89 226.53 472.89 226.53 487.17"></polygon><polygon class="cls-2" points="256.39 488.9 268.3 488.9 268.3 483.27 256.39 483.27 256.39 478.79 269.91 478.79 269.91 472.89 248.92 472.89 248.92 499.69 270.4 499.69 270.4 493.8 256.39 493.8 256.39 488.9"></polygon><path class="cls-2" d="M302.47,485.81c-.9-.57-1.89-1.03-2.97-1.38-1.07-.34-2.15-.63-3.24-.86-1.09-.23-2.07-.45-2.97-.67-.89-.22-1.62-.5-2.18-.84-.56-.34-.84-.82-.84-1.43,0-.41.14-.79.42-1.15.28-.36.74-.65,1.38-.88.64-.23,1.48-.34,2.53-.34,1.17,0,2.39.17,3.64.5,1.25.33,2.51.86,3.79,1.57l2.3-5.59c-1.3-.79-2.8-1.38-4.5-1.78-1.7-.4-3.43-.59-5.19-.59-2.63,0-4.82.4-6.58,1.19-1.76.79-3.08,1.84-3.94,3.14-.87,1.3-1.3,2.74-1.3,4.33,0,1.43.27,2.62.82,3.56.55.95,1.27,1.71,2.16,2.3.89.59,1.89,1.06,2.99,1.42,1.1.36,2.18.64,3.24.86,1.06.22,2.04.45,2.95.69.9.24,1.64.53,2.2.88.56.34.84.81.84,1.4,0,.46-.15.86-.44,1.19-.29.33-.75.59-1.38.77-.62.18-1.47.27-2.54.27-1.56,0-3.12-.25-4.69-.74-1.57-.5-2.95-1.13-4.16-1.9l-2.49,5.63c1.25.84,2.89,1.54,4.92,2.09s4.16.82,6.37.82c2.66,0,4.86-.4,6.62-1.19,1.76-.79,3.08-1.84,3.96-3.16.88-1.31,1.32-2.75,1.32-4.31,0-1.4-.28-2.57-.84-3.5-.56-.93-1.3-1.69-2.2-2.26Z"></path><path class="cls-2" d="M336.81,485.81c-.9-.57-1.89-1.03-2.97-1.38-1.07-.34-2.15-.63-3.24-.86s-2.07-.45-2.97-.67c-.89-.22-1.62-.5-2.18-.84-.56-.34-.84-.82-.84-1.43,0-.41.14-.79.42-1.15.28-.36.74-.65,1.38-.88.64-.23,1.48-.34,2.53-.34,1.17,0,2.39.17,3.64.5,1.25.33,2.51.86,3.79,1.57l2.3-5.59c-1.3-.79-2.8-1.38-4.5-1.78-1.7-.4-3.43-.59-5.19-.59-2.63,0-4.82.4-6.58,1.19-1.76.79-3.08,1.84-3.94,3.14-.87,1.3-1.3,2.74-1.3,4.33,0,1.43.27,2.62.82,3.56.55.95,1.27,1.71,2.16,2.3.89.59,1.89,1.06,2.99,1.42,1.1.36,2.18.64,3.24.86,1.06.22,2.04.45,2.95.69.9.24,1.64.53,2.2.88.56.34.84.81.84,1.4,0,.46-.15.86-.44,1.19-.29.33-.75.59-1.38.77-.62.18-1.47.27-2.54.27-1.56,0-3.12-.25-4.69-.74-1.57-.5-2.95-1.13-4.16-1.9l-2.49,5.63c1.25.84,2.89,1.54,4.92,2.09s4.16.82,6.37.82c2.66,0,4.86-.4,6.62-1.19,1.76-.79,3.08-1.84,3.96-3.16.88-1.31,1.32-2.75,1.32-4.31,0-1.4-.28-2.57-.84-3.5-.56-.93-1.3-1.69-2.2-2.26Z"></path><path class="cls-2" d="M398.35,487.06l-5.82-1.76c-.26,1.45-.71,2.68-1.24,3.81l-3.91-3.49c.49-.27.96-.53,1.37-.8,1.22-.81,2.14-1.69,2.74-2.66.6-.97.9-2.03.9-3.18,0-1.35-.35-2.51-1.05-3.46-.7-.96-1.67-1.7-2.89-2.22-1.22-.52-2.68-.78-4.36-.78-1.79,0-3.35.29-4.69.86-1.34.57-2.39,1.38-3.14,2.43-.75,1.05-1.13,2.25-1.13,3.6,0,.71.13,1.44.4,2.16.27.73.68,1.45,1.23,2.16.28.36.6.73.96,1.11-.63.36-1.25.71-1.77,1.07-1.31.92-2.28,1.93-2.91,3.02-.62,1.1-.94,2.35-.94,3.75s.47,2.72,1.4,3.87,2.2,2.05,3.81,2.7c1.61.65,3.43.98,5.47.98,2.63,0,5.01-.55,7.14-1.65.65-.33,1.26-.72,1.84-1.14l3.04,2.71,3.91-4.44-2.86-2.55c1.17-1.79,2.02-3.82,2.51-6.11ZM382.37,477.85c.42-.37,1-.56,1.74-.56s1.26.17,1.63.5c.37.33.55.77.55,1.3,0,.43-.16.86-.5,1.28-.33.42-.89.86-1.66,1.32-.2.12-.47.25-.71.37-.23-.22-.46-.44-.63-.62-.42-.45-.7-.84-.84-1.17s-.21-.66-.21-.99c0-.59.21-1.07.63-1.44ZM387.4,493.63c-1.25.73-2.62,1.09-4.1,1.09-.87,0-1.6-.13-2.2-.38-.6-.25-1.07-.6-1.4-1.03-.33-.43-.5-.9-.5-1.42,0-.64.15-1.21.46-1.72.31-.51.81-1,1.51-1.47.13-.09.31-.18.45-.27l5.81,5.18s-.02.02-.04.03Z"></path><polygon class="cls-2" points="450.58 482.96 440.28 482.96 440.28 472.89 432.7 472.89 432.7 499.69 440.28 499.69 440.28 489.24 450.58 489.24 450.58 499.69 458.16 499.69 458.16 472.89 450.58 472.89 450.58 482.96"></polygon><polygon class="cls-2" points="480.59 488.9 492.5 488.9 492.5 483.27 480.59 483.27 480.59 478.79 494.11 478.79 494.11 472.89 473.13 472.89 473.13 499.69 494.61 499.69 494.61 493.8 480.59 493.8 480.59 488.9"></polygon><path class="cls-2" d="M517,472.89l-11.83,26.8h7.73l2.11-5.24h11.33l2.11,5.24h7.89l-11.87-26.8h-7.47ZM517.24,488.9l3.44-8.57,3.44,8.57h-6.88Z"></path><polygon class="cls-2" points="555.63 472.89 548.05 472.89 548.05 499.69 568.38 499.69 568.38 493.68 555.63 493.68 555.63 472.89"></polygon><polygon class="cls-2" points="575.39 478.9 583.62 478.9 583.62 499.69 591.2 499.69 591.2 478.9 599.39 478.9 599.39 472.89 575.39 472.89 575.39 478.9"></polygon><polygon class="cls-2" points="629.72 472.89 629.72 482.96 619.42 482.96 619.42 472.89 611.84 472.89 611.84 499.69 619.42 499.69 619.42 489.24 629.72 489.24 629.72 499.69 637.3 499.69 637.3 472.89 629.72 472.89"></polygon></g><g><path class="cls-2" d="M322.87,546.75c-.12-.05-.27-.07-.4-.11.8-.41,1.45-.92,1.91-1.59.52-.75.78-1.63.78-2.62,0-1.49-.63-2.71-1.88-3.65-1.25-.94-3.16-1.41-5.72-1.41h-9.84v19.34h10.39c2.62,0,4.6-.47,5.96-1.41s2.03-2.24,2.03-3.9c0-1.11-.28-2.05-.84-2.85s-1.35-1.4-2.38-1.81ZM316.87,541.32c.92,0,1.61.15,2.07.46.46.3.69.78.69,1.42,0,.61-.23,1.07-.69,1.38-.46.31-1.15.47-2.07.47h-3.76v-3.73h3.76ZM319.85,552.28c-.48.32-1.2.48-2.16.48h-4.59v-3.92h4.59c.96,0,1.68.16,2.16.48.48.32.72.82.72,1.48s-.24,1.16-.72,1.48Z"></path><path class="cls-2" d="M352.22,548.31c.69-1.05,1.04-2.32,1.04-3.81,0-2.21-.76-3.95-2.27-5.22-1.51-1.27-3.68-1.91-6.52-1.91h-8.62v19.34h5.47v-5.14h2.96l3.51,5.14h5.86l-4.19-6.1c1.18-.55,2.12-1.31,2.77-2.3ZM346.9,542.44c.57.51.86,1.19.86,2.06s-.28,1.6-.86,2.1-1.43.75-2.57.75h-3.01v-5.67h3.01c1.14,0,2,.25,2.57.76Z"></path><path class="cls-2" d="M369.39,537.37l-8.54,19.34h5.58l1.52-3.79h8.18l1.52,3.79h5.69l-8.56-19.34h-5.39ZM369.56,548.92l2.48-6.18,2.48,6.18h-4.96Z"></path><path class="cls-2" d="M404.97,546.7c-.65-.41-1.37-.75-2.14-.99-.77-.25-1.55-.46-2.33-.62-.78-.16-1.5-.33-2.14-.48-.65-.16-1.17-.36-1.57-.61-.41-.25-.61-.59-.61-1.03,0-.3.1-.57.3-.83.2-.26.53-.47.99-.63.46-.17,1.07-.25,1.82-.25.85,0,1.72.12,2.63.36.9.24,1.81.62,2.73,1.13l1.66-4.03c-.94-.57-2.02-1-3.25-1.29-1.22-.28-2.47-.43-3.74-.43-1.9,0-3.48.29-4.75.86-1.27.57-2.22,1.33-2.85,2.27-.63.94-.94,1.98-.94,3.12,0,1.03.2,1.89.59,2.57.4.68.92,1.23,1.56,1.66.64.43,1.36.77,2.15,1.02.79.26,1.57.47,2.33.62s1.47.32,2.13.5c.65.18,1.18.39,1.59.63.41.25.61.59.61,1.01,0,.33-.11.62-.32.86-.21.24-.54.42-.99.55-.45.13-1.06.19-1.84.19-1.12,0-2.25-.18-3.38-.54-1.13-.36-2.13-.81-3-1.37l-1.8,4.06c.9.61,2.08,1.11,3.55,1.5,1.46.4,3,.59,4.6.59,1.92,0,3.51-.28,4.78-.86s2.22-1.33,2.86-2.28c.64-.95.95-1.99.95-3.11,0-1.01-.2-1.86-.61-2.53-.4-.67-.93-1.21-1.59-1.63Z"></path><rect class="cls-2" x="416.58" y="537.37" width="5.47" height="19.34"></rect><polygon class="cls-2" points="438.33 552.38 438.33 537.37 432.86 537.37 432.86 556.71 447.53 556.71 447.53 552.38 438.33 552.38"></polygon></g><g><polygon class="cls-1" points="293.51 552.19 194.99 549.82 293.51 547.45 293.51 552.19 293.51 552.19"></polygon><polygon class="cls-1" points="461.74 547.45 560.25 549.82 461.74 552.19 461.74 547.45 461.74 547.45"></polygon></g><g><g><path class="cls-2" d="M377.17,271.96c6.89-5.4,13.45-10.96,20.44-15.94,18.56-13.21,39.18-22.41,60.37-30.45,31.67-12.01,64.47-19.57,97.8-25.08,3.63-.6,7.06-1.03,11.47-1.47-2.77,2.4-5.78,5.11-8.61,7.43-22.35,18.3-46.96,32.79-73.93,43.16-6.31,2.43-12.8,4.44-19.31,6.3-2.13.61-4.65.53-6.85.07-4.5-.92-8.9-2.31-14-3.69,10.7-5.87,20.82-11.43,31.61-17.35-17.09.59-71.02,30.98-86.28,48.22,3.44,3.99,6.89,7.99,10.55,12.23-5.03,3.51-9.74,6.79-14.49,10.11-2.79-3.82-5.47-7.49-8.43-11.55-2.94,4.11-5.5,7.7-8.18,11.45-4.83-3.3-9.58-6.54-14.59-9.97,3.54-4.19,6.9-8.18,10.26-12.16-14.56-17.01-65.57-46.09-85.06-47.9,10,5.56,20,11.12,30.5,16.96-8.28,1.57-15.36,5.66-24.42,2.74-36.12-11.62-68.29-29.87-96.65-54.98-.31-.28-.67-.52-1.73-1.5,6.41,1.06,12.42,1.98,18.09,2.95,27.4,4.68,54.4,11,80.69,20.1,19.5,6.75,38.6,14.47,56.49,24.92,10.66,6.23,20.62,13.4,29.83,21.62,1.48,1.32,3.02,2.57,4.44,3.77Z"></path><path class="cls-2" d="M163.64,124.67c2.81,1.88,4.99,3.32,7.15,4.79,22.72,15.48,45.47,30.91,68.13,46.47,12.24,8.41,22,19.26,30.17,31.6.5.75,2.29,2.78,3.2,4.47-3.49-1.15-9.37-3.21-12.46-5.03-19.61-11.52-37.74-24.11-54.92-39.04-.2-.17-2.18-1.78-2.18-1.78,2.95,4.04,6.63,7.91,9.73,11.13,3.2,3.32,6.51,6.54,9.96,9.6,3.38,3,6.92,5.82,10.5,8.58,3.63,2.8,7.38,5.43,10.99,8.55-4.18-.87-8.36-1.77-12.55-2.6-6.47-1.28-12.95-2.49-19.41-3.81-1.1-.23-2.25-.7-3.14-1.38-13.69-10.37-23.79-23.77-31.43-38.93-4.83-9.58-8.16-19.02-12.38-28.9-.31-.73-.71-1.82-1.35-3.73Z"></path><path class="cls-2" d="M512.09,203.76c14.67-10.75,28.53-22.24,39.64-36.77-4.09,3.29-8.02,6.78-12.29,9.82-13.75,11.56-25.6,19.59-39.92,28.05-4.44,3.17-9.39,4.36-15.11,4.72,4.07-5.23,8.02-10.55,12.22-15.66,8.83-10.77,20.21-18.58,31.54-26.35,19.69-13.5,39.55-26.73,59.34-40.07,1.19-.81,2.44-1.54,4.09-2.58-.47,1.67-.73,2.94-1.17,4.15-6.26,17.55-14.24,34.18-25.67,49.03-5.33,6.92-11.51,12.97-18.34,18.39-.47.37-1.09.66-1.68.78-10.44,2.15-20.89,4.28-31.34,6.39-.43.09-.89.07-1.33.11Z"></path><path class="cls-2" d="M249.59,156.67c-4.4-13.06-7.03-26-9.23-39.04-2.19,21.41,3.38,41.35,12.21,61.42-4.82-3.58-8.69-7.26-13.24-9.63-8.13-4.25-10.81-11.63-12.7-19.61-5.42-22.86-.9-44.1,10.84-64.06,1.96-3.32,4.24-6.46,6.74-10.23.61,1.89,1,3.11,1.4,4.32,4.09,12.44,8.12,24.9,12.29,37.31,3.53,10.53,2.39,20.43-3.33,29.93-1.76,2.93-3.16,6.08-4.97,9.61Z"></path><path class="cls-2" d="M510.87,75.75c4.83,5.85,8.28,11.97,11.31,18.33,10.6,22.25,11.53,44.87,2.41,67.83-.29.74-.61,1.62-1.2,2.06-6.6,4.91-13.26,9.74-20.59,15.09,8.71-20.06,14.29-40.06,12.49-61.86-3.02,13.3-5.94,26.18-8.87,39.06-8.05-12.39-14.41-24.76-8.96-39.77,3.88-10.7,7.33-21.56,10.92-32.36.87-2.62,1.58-5.3,2.5-8.39Z"></path><path class="cls-2" d="M232.6,0c.26,5.73.33,13.77,1.04,20.11,1.37,12.13,2.94,24.23,4.76,36.3.5,3.33.25,6.27-1.25,9.16-2.71,5.21-5.51,10.38-8.23,15.58-1.86,3.56-3.67,7.15-5.69,11.11-2.65-16.29-1.98-32.35-2.16-48.38-5.1,21.52-4.4,43.23-1.44,65.01-4.16-7.26-9.57-13.99-12.76-21.65-2.97-7.15-3.07-15.18-2.75-23.02,1-24.37,11.09-44.8,27.07-62.69.23-.26.71-.91,1.41-1.54Z"></path><path class="cls-2" d="M536.71,106.62c1.86-21.13,2.57-42.07-2.13-62.92-.51,16.7-1.03,33.31-1.54,49.92-2.36-4.5-4.69-9-7.06-13.49-2.66-5.03-5.59-9.93-7.92-15.11-1.05-2.33-1.63-5.31-1.22-7.79,3.1-18.65,5.4-37.79,5.73-57.14.83.74,1.21,1.18,1.51,1.53,13.12,15.06,22.8,31.86,26.08,51.87,1.67,10.18,1.49,20.34-.57,30.47-1.38,6.79-6.16,11.77-9.35,17.6-.98,1.79-2.35,3.38-3.54,5.06Z"></path><path class="cls-2" d="M348.61,243.02c-10.45-5.12-19.39-11.55-30.28-15.51-15.5-5.64-27.38-15.4-38.01-27.66.94,1.92,1.78,3.9,2.83,5.75,1.16,2.04,2.45,4.01,3.79,5.94,1.29,1.85,2.78,3.91,4.59,6.19-1.42-.5-3.65-1.1-4.95-1.83-20.65-11.63-32.26-39.16-26.27-62.12.06-.24.16-.47.28-.82,2.07,3.29,3.92,6.58,6.1,9.64,8.86,12.41,19.77,22.88,31.91,31.93,10.56,7.87,21.76,14.88,32.67,22.28.44.3.91.62,1.21,1.05,5.64,7.96,9.56,15.93,15.17,23.91.24.34.88,1.13.93,1.25Z"></path><path class="cls-2" d="M559.47,104.22c-6.91,14.14-13.72,28.35-22.9,41.31,2.23-9.68,2.71-19.36,1.26-29.14-.13-.87.24-1.96.71-2.76,11.22-19.09,22.49-38.15,33.75-57.21.04-.07.5-.9.5-.9.74,3.68,1.68,7.52,2.27,10.99,3.23,19.11,2.95,38.03-3.57,56.5-1.53,4.32-3.84,8.36-5.85,12.51-.3.61-.84,1.19-1.41,1.57-8.51,5.66-17.04,11.28-25.57,16.9-.11.07-.2.17-1.34.8,9.6-15.72,17.92-32.71,22.16-50.57Z"></path><path class="cls-2" d="M218.95,145.36c-9.02-12.77-16.38-27.11-22.98-41.08,4.31,17.77,11.75,34.18,21.32,49.9-1.24-.76-2.5-1.48-3.71-2.28-7.48-4.93-14.95-9.86-22.4-14.82-.65-.43-1.28-1.03-1.66-1.7-6.48-11.46-9.72-23.84-10.7-36.93-1.05-13.93.16-27.63,3.38-41.19.08-.32.24-1.1.41-1.75.46.73.6,1.11.75,1.37,10.97,18.61,21.97,37.21,32.85,55.88.84,1.44,1.39,3.44,1.16,5.05-1.25,8.73-.71,17.32,1.16,25.88.07.34.29.98.44,1.67Z"></path><path class="cls-2" d="M463.69,217.67c6.54-6.71,9.87-13.03,12.11-18.18l1.18-2.37c-3.21,3.54-7.91,9.44-11.48,12.57-5.15,4.51-10.65,8.66-16.26,12.6-2.22,1.56-5.11,2.22-7.72,3.19-12.24,4.57-23.72,10.64-34.9,17.33-.28.17-1.83.89-2.12,1.03l1.04-1.65c3.86-5.72,7.54-10.77,11.13-16.65,4.45-7.31,11.75-10.99,18.51-15.41,15.93-10.42,31.16-21.78,43.99-35.94,5.84-6.45,10.78-13.71,15.93-20.36,3.55,16.28.51,31.95-9.4,46.15-5.4,7.73-12.7,14.15-22,17.68Z"></path><path class="cls-2" d="M346.24,220.4c1.19.89,2.98,2.19,4.09,3.1,7.23,6.42,14.28,12.4,21.42,18.93,2,1.83,3.83,3.83,5.88,5.9,10.32-9.53,19.34-18.41,30.13-27.49,2.78-2.12,5.27-4.05,5.27-4.05-.75,2.33-4.62,9.33-5.85,11.53-7.14,12.77-15.61,22.65-25.92,33.08-3.17,3.21-4.26,3.49-7.25,0-6.69-7.82-13.07-13.89-19.24-22.13-3.07-4.09-5.38-8.77-7.86-13.28-.78-1.42-3.31-6.4-4.07-8.22,0,0,2.3,1.78,3.41,2.62Z"></path><path class="cls-2" d="M377.64,195.55c5.84,9.5,11.39,18.54,16.87,27.45-5.74,5.74-11.33,11.33-16.99,17-5.38-5.58-10.81-11.21-16.51-17.12,5.22-8.57,10.75-17.65,16.64-27.33Z"></path></g><g><rect class="cls-2" x="372.25" y="104.75" width="10.75" height="70.7" transform="translate(517.72 -237.52) rotate(90)"></rect><rect class="cls-2" x="447" y="115.25" width="10.75" height="49.69" rx="1.32" ry="1.32" transform="translate(904.75 280.2) rotate(180)"></rect><rect class="cls-2" x="432.07" y="109.93" width="10.75" height="60.34" rx="1.32" ry="1.32" transform="translate(874.9 280.2) rotate(180)"></rect><rect class="cls-2" x="417.15" y="105.09" width="10.75" height="70.01" rx="1.32" ry="1.32" transform="translate(845.05 280.2) rotate(180)"></rect><path class="cls-2" d="M461.32,135.33h10.75v8.21c0,.73-.59,1.32-1.32,1.32h-8.1c-.73,0-1.32-.59-1.32-1.32v-8.21h0Z" transform="translate(326.6 606.79) rotate(-90)"></path><rect class="cls-2" x="297.5" y="115.25" width="10.75" height="49.69" rx="1.32" ry="1.32"></rect><rect class="cls-2" x="312.42" y="109.93" width="10.75" height="60.34" rx="1.32" ry="1.32"></rect><rect class="cls-2" x="327.35" y="105.09" width="10.75" height="70.01" rx="1.32" ry="1.32"></rect><path class="cls-2" d="M283.18,135.33h10.75v8.21c0,.73-.59,1.32-1.32,1.32h-8.1c-.73,0-1.32-.59-1.32-1.32v-8.21h0Z" transform="translate(428.65 -148.45) rotate(90)"></path></g></g></g></g></svg>