<svg xmlns="http://www.w3.org/2000/svg" id="Camada_2" data-name="Camada 2" viewBox="0 0 695.47 705.12"><defs><style>      .cls-1 {        fill: #0a1a2a;      }      .cls-2 {        fill: #86c63c;      }    </style></defs><g id="Camada_1-2" data-name="Camada 1"><g><g><path class="cls-1" d="M31.53,308.56l.05-.72-28.68-1.96.83-12.22,46.01,3.14-.89,12.94-30.64,26.73-.05.72,28.69,1.96-.84,12.22-46.01-3.15.89-12.94,30.64-26.73Z"></path><path class="cls-1" d="M16.47,242.35l4.89-14.62,51.32-8.05-4.39,13.12-8.59,1.38-8.76,26.17,6.05,6.2-4.39,13.11-36.13-37.31ZM30.62,239.33l11.01,11.36,4.85-14.48-15.63,2.44-.23.68Z"></path><path class="cls-1" d="M55.81,181.04l-10.21,17.39-10.25-6.02,26.63-45.35,10.25,6.02-10.21,17.39,29.51,17.33-6.2,10.57-29.51-17.33Z"></path><path class="cls-1" d="M87.46,115.51l17.3,16.64c4.98,4.8,10.94,4.42,16.09-.93l5.15-5.35c5.14-5.35,5.04-10.54-.21-15.59l-17.3-16.64,8.49-8.83,17.35,16.69c10.49,10.09,10.63,21.8.28,32.56l-6.24,6.49c-9.94,10.34-21.61,10.52-32.05.48l-17.35-16.69,8.49-8.84Z"></path><path class="cls-1" d="M140.32,65.94l28.11-17.82c10.28-6.51,20.05-5.38,25.36,3.03,3.98,6.26,3.45,13.25-1.42,18.47l17.41,6.87-12.84,8.14-15.86-6.32-6.02,3.82c-4.32,2.74-6.24,5.91-4.3,8.95l4.59,7.24-10.34,6.56-24.69-38.94ZM163.38,78.1c.96-2.39,2.39-4.16,5.44-6.09l11.5-7.29c3.71-2.35,3.92-4.45,2.53-6.63-1.46-2.32-3.67-2.71-7.27-.43l-18.55,11.76,5.74,9.07.61-.39Z"></path><path class="cls-1" d="M233.31,17.53l14.67-4.76,36.99,36.48-13.16,4.27-6.22-6.09-26.25,8.52-1.39,8.56-13.16,4.27,8.52-51.25ZM244.15,27.12l-2.59,15.61,14.53-4.71-11.26-11.12-.69.22Z"></path><path class="cls-1" d="M298.91.92l12.22-.92,2.58,34.14,33.78-2.55.89,11.86-45.99,3.47-3.48-45.99Z"></path><path class="cls-1" d="M414.56,3.8l44.58,11.83-3.05,11.49-32.75-8.69-1.33,5.02,26.34,6.99-3.05,11.49-26.34-6.99-4.4,16.58-11.84-3.15,11.83-44.58Z"></path><path class="cls-1" d="M484.27,26.01l11.17,5.02-18.89,42.07-11.18-5.02,18.89-42.07Z"></path><path class="cls-1" d="M529.82,63.71l-16.73-11.27,6.64-9.86,43.61,29.38-6.65,9.86-16.73-11.27-19.12,28.38-10.16-6.84,19.12-28.38Z"></path><path class="cls-1" d="M592.43,141l.49.53,21.19-19.42,8.27,9.03-33.99,31.14-8.76-9.56,1.78-40.6-.48-.53-21.19,19.41-8.27-9.03,33.99-31.14,8.75,9.56-1.78,40.6Z"></path><path class="cls-1" d="M639.82,156.16l22.45,40.26-10.38,5.79-16.49-29.56-4.53,2.52,13.26,23.78-10.38,5.79-13.26-23.78-4.6,2.56,16.5,29.57-10.38,5.79-22.45-40.26,40.26-22.46Z"></path><path class="cls-1" d="M662.35,244.6l4.92,16.87c3.05,10.45-1.05,17.49-9.35,19.91-8.78,2.56-16.28-1.03-19.31-11.41l-4.74-16.25c-3.36-11.55.59-19.08,8.82-21.48l3.63,12.45c-1.59.47-1.8,1.8-.77,5.33l4.64,15.91c.8,2.76,1.89,3.65,3.75,3.1,1.8-.52,2.22-1.92,1.47-4.47l-5.1-17.5c-3.09-10.58,1.34-17.8,9.29-20.12,8.79-2.56,16.47,1.66,19.81,13.13l4.43,15.22c3.03,10.37-1.09,17.35-9.32,19.75l-3.63-12.45c1.59-.47,1.86-1.59,1.02-4.5l-4.32-14.8c-1.01-3.46-2.09-4.57-3.95-4.03-2.01.59-2.33,1.81-1.3,5.33Z"></path><path class="cls-1" d="M676.96,319.62l.93,17.55c.58,10.85-5.02,16.78-13.66,17.24-9.13.48-15.61-4.73-16.18-15.52l-.89-16.89c-.64-12.01,4.94-18.44,13.49-18.89l.69,12.95c-1.66.09-2.16,1.34-1.97,5l.87,16.54c.15,2.88,1.01,3.99,2.95,3.88,1.87-.1,2.59-1.36,2.46-4.02l-.97-18.19c-.58-11,5.37-17.02,13.65-17.46,9.13-.48,15.64,5.37,16.27,17.31l.84,15.82c.57,10.78-5.03,16.64-13.59,17.1l-.69-12.95c1.66-.09,2.18-1.13,2.02-4.14l-.82-15.39c-.19-3.6-.98-4.92-2.92-4.82-2.08.11-2.67,1.22-2.48,4.89Z"></path></g><g><path class="cls-1" d="M59.94,472.78l17.34,31.24c5.38,9.7,3.83,16.41-4.8,21.2-1.89,1.04-4.1,1.53-6,1.35.37,4.82-1.88,8.79-6.48,11.33-8.31,4.62-15.7,1.71-21.29-8.36l-19.09-34.4,40.32-22.38ZM49.39,524.28c1.4,2.52,2.68,3.2,4.32,2.3,1.51-.84,1.57-2.52.24-4.91l-9.3-16.75c-2.66-4.79-5.67-6.49-8.69-4.82l13.43,24.18ZM49.35,493.49c2.34,1.09,4.15,2.88,5.9,6.03l7.03,12.66c1.22,2.21,2.28,2.61,3.91,1.7,1.57-.87,1.78-2.14.66-4.16l-11.36-20.47-6.49,3.6.36.63Z"></path><path class="cls-1" d="M99.92,538.98l22.64,24.4c8.28,8.92,8.94,18.74,1.66,25.5-5.44,5.04-12.4,5.81-18.43,1.97l-3.59,18.37-10.34-11.14,3.33-16.75-4.85-5.23c-3.48-3.75-6.95-5.05-9.59-2.6l-6.28,5.84-8.33-8.98,33.79-31.37ZM92.16,563.88c2.53.5,4.53,1.6,6.98,4.24l9.26,9.98c3,3.22,5.09,3.04,6.99,1.27,2.01-1.86,1.99-4.1-.9-7.22l-14.95-16.11-7.86,7.3.49.53Z"></path><path class="cls-1" d="M170.32,603.75l12.92,8.42-5.14,51.7-11.59-7.55.83-8.66-23.12-15.07-7.53,4.29-11.59-7.56,45.22-25.57ZM169.67,618.2l-13.77,7.8,12.8,8.34,1.57-15.74-.6-.39Z"></path><path class="cls-1" d="M229.08,653.76l16.55,5.93c10.24,3.66,13.54,11.12,10.63,19.26-3.09,8.61-10.4,12.58-20.57,8.93l-15.94-5.71c-11.33-4.06-15.1-11.68-12.21-19.75l12.21,4.37c-.55,1.56.4,2.51,3.86,3.75l15.6,5.58c2.71.97,4.06.61,4.73-1.22.62-1.76-.26-2.93-2.77-3.82l-17.16-6.15c-10.38-3.72-13.62-11.53-10.83-19.33,3.08-8.61,11-12.36,22.26-8.33l14.91,5.34c10.18,3.65,13.41,11.07,10.52,19.14l-12.21-4.37c.56-1.56-.19-2.44-3.05-3.46l-14.51-5.19c-3.39-1.21-4.92-1-5.58.83-.7,1.97.1,2.94,3.55,4.18Z"></path><path class="cls-1" d="M287.11,652.92l12.06,2.14-8.04,45.42-12.07-2.14,8.04-45.42Z"></path><path class="cls-1" d="M321,658.51l12.25.14-.38,34.2,33.86.38-.13,11.89-46.1-.51.51-46.09Z"></path><path class="cls-1" d="M424.26,650.24l43.8-14.39,3.71,11.29-32.17,10.57,1.62,4.93,25.87-8.5,3.71,11.29-25.87,8.5,1.64,4.99,32.17-10.57,3.72,11.29-43.81,14.39-14.39-43.81Z"></path><path class="cls-1" d="M515.46,637.08l-27.83-9.39,13.45-8.38,21.25,7.14.61-.38,2.91-22.18,13.45-8.38-3.78,29.09.38.62,27.78,9.43-13.46,8.38-21.18-7.17-.61.38-2.97,22.21-13.45,8.38,3.84-29.13-.38-.61Z"></path><path class="cls-1" d="M554.72,582.47l23.64-24.43c8.47-8.75,18.34-9.83,25.64-2.77,7.3,7.06,6.54,16.96-1.92,25.71l-9.27,9.58c-3.81,3.94-4.51,7.36-2.09,9.71l5.65,5.46-8.51,8.8-33.14-32.07ZM580.51,589.38c.36-2.65,1.55-4.81,4.06-7.4l9.32-9.63c2.86-2.95,3.22-5.71,1.1-7.76-2.02-1.95-4.72-1.76-7.88,1.5l-15.33,15.84,8.24,7.97.5-.52Z"></path><path class="cls-1" d="M616.79,505.36l4.67-8.12c8.01-13.93,20.87-17.92,33.8-10.49,12.8,7.37,15.58,20.02,7.42,34.2l-4.67,8.12c-7.87,13.67-20.19,17.47-32.93,10.14-12.93-7.44-16.09-20.3-8.28-33.86ZM647.53,522.71l4.53-7.87c3.81-6.62,3.72-12.82-3.34-16.88-6.99-4.02-12.84-1.23-16.64,5.39l-4.53,7.87c-3.95,6.87-2.56,12.99,3.93,16.72,6.31,3.63,12,1.83,16.06-5.23Z"></path></g><circle class="cls-2" cx="22.79" cy="412.26" r="8.48"></circle><circle class="cls-2" cx="665.73" cy="412.26" r="8.48"></circle><g><g><path class="cls-2" d="M352.54,474.72c7.29-5.71,14.23-11.6,21.62-16.86,19.63-13.97,41.44-23.7,63.86-32.21,33.49-12.7,68.2-20.7,103.45-26.53,3.84-.64,7.47-1.08,12.14-1.56-2.93,2.54-6.11,5.41-9.11,7.86-23.64,19.36-49.67,34.69-78.2,45.65-6.68,2.57-13.54,4.69-20.43,6.66-2.25.64-4.92.56-7.24.08-4.75-.98-9.41-2.45-14.81-3.9,11.32-6.21,22.02-12.09,33.44-18.35-18.08.62-75.12,32.77-91.27,51.01,3.64,4.22,7.29,8.45,11.16,12.94-5.32,3.71-10.3,7.18-15.33,10.69-2.95-4.04-5.78-7.92-8.92-12.21-3.11,4.35-5.82,8.14-8.65,12.11-5.11-3.49-10.13-6.92-15.43-10.54,3.74-4.43,7.3-8.65,10.85-12.87-15.4-17.99-69.35-48.75-89.97-50.67,10.58,5.88,21.16,11.77,32.26,17.94-8.76,1.66-16.25,5.98-25.83,2.9-38.2-12.29-72.23-31.6-102.23-58.15-.33-.29-.71-.55-1.83-1.59,6.78,1.13,13.14,2.1,19.13,3.12,28.98,4.95,57.55,11.64,85.34,21.26,20.62,7.14,40.83,15.31,59.76,26.36,11.28,6.59,21.81,14.18,31.55,22.87,1.56,1.4,3.19,2.72,4.69,3.99Z"></path><path class="cls-2" d="M126.68,318.93c2.97,1.99,5.27,3.51,7.56,5.07,24.03,16.37,48.09,32.69,72.06,49.15,12.95,8.89,23.27,20.37,31.91,33.42.52.79,2.43,2.94,3.39,4.73-3.69-1.21-9.91-3.4-13.18-5.32-20.74-12.19-39.92-25.5-58.1-41.3-.21-.18-2.31-1.89-2.31-1.89,3.12,4.27,7.01,8.37,10.3,11.77,3.39,3.51,6.89,6.92,10.53,10.16,3.57,3.17,7.32,6.16,11.11,9.08,3.83,2.96,7.81,5.74,11.62,9.05-4.42-.92-8.84-1.87-13.27-2.75-6.84-1.36-13.7-2.63-20.53-4.03-1.16-.24-2.38-.74-3.32-1.46-14.48-10.97-25.17-25.14-33.25-41.18-5.1-10.13-8.64-20.11-13.1-30.57-.33-.77-.75-1.92-1.43-3.94Z"></path><path class="cls-2" d="M495.25,402.58c15.52-11.37,30.17-23.52,41.93-38.89-4.32,3.48-8.48,7.18-12.99,10.39-14.55,12.23-27.08,20.72-42.23,29.67-4.7,3.35-9.93,4.61-15.98,4.99,4.3-5.53,8.49-11.16,12.93-16.57,9.34-11.39,21.38-19.65,33.36-27.87,20.82-14.28,41.83-28.28,62.77-42.38,1.26-.85,2.58-1.63,4.33-2.73-.49,1.77-.78,3.11-1.23,4.39-6.62,18.56-15.06,36.16-27.15,51.86-5.64,7.32-12.18,13.72-19.4,19.45-.5.4-1.15.7-1.77.83-11.04,2.28-22.1,4.52-33.15,6.76-.46.09-.94.08-1.41.11Z"></path><path class="cls-2" d="M217.59,352.78c-4.65-13.81-7.43-27.5-9.77-41.3-2.31,22.65,3.57,43.73,12.91,64.96-5.1-3.78-9.19-7.67-14-10.19-8.6-4.5-11.43-12.3-13.43-20.74-5.73-24.18-.95-46.64,11.47-67.76,2.07-3.52,4.48-6.83,7.12-10.83.64,2,1.05,3.28,1.48,4.57,4.33,13.16,8.59,26.33,13,39.46,3.74,11.13,2.53,21.61-3.52,31.66-1.87,3.1-3.34,6.43-5.26,10.17Z"></path><path class="cls-2" d="M493.96,267.18c5.11,6.19,8.76,12.66,11.96,19.39,11.22,23.53,12.2,47.46,2.55,71.75-.31.78-.65,1.72-1.27,2.18-6.98,5.19-14.02,10.3-21.78,15.97,9.22-21.22,15.11-42.37,13.21-65.43-3.19,14.06-6.29,27.69-9.38,41.32-8.52-13.11-15.25-26.19-9.48-42.06,4.11-11.32,7.75-22.81,11.55-34.23.92-2.77,1.67-5.61,2.64-8.87Z"></path><path class="cls-2" d="M199.62,187.06c.27,6.06.34,14.56,1.1,21.27,1.45,12.83,3.11,25.63,5.03,38.4.53,3.52.26,6.63-1.32,9.69-2.87,5.51-5.83,10.98-8.71,16.48-1.97,3.77-3.88,7.57-6.02,11.76-2.81-17.23-2.09-34.21-2.28-51.17-5.4,22.76-4.66,45.72-1.52,68.77-4.4-7.67-10.12-14.8-13.49-22.9-3.15-7.56-3.25-16.05-2.91-24.35,1.05-25.78,11.73-47.39,28.63-66.31.25-.28.75-.96,1.49-1.63Z"></path><path class="cls-2" d="M521.3,299.83c1.97-22.35,2.72-44.5-2.25-66.55-.54,17.66-1.09,35.23-1.63,52.8-2.49-4.76-4.96-9.52-7.47-14.27-2.81-5.32-5.91-10.51-8.37-15.98-1.11-2.46-1.73-5.61-1.29-8.24,3.28-19.72,5.71-39.97,6.06-60.44.88.79,1.28,1.25,1.6,1.62,13.88,15.93,24.12,33.7,27.58,54.86,1.76,10.77,1.57,21.52-.6,32.23-1.46,7.19-6.51,12.45-9.89,18.61-1.04,1.9-2.48,3.57-3.74,5.35Z"></path><path class="cls-2" d="M322.34,444.11c-11.05-5.42-20.51-12.22-32.02-16.41-16.39-5.96-28.97-16.29-40.2-29.26.99,2.03,1.88,4.12,3,6.08,1.22,2.16,2.59,4.25,4.01,6.28,1.36,1.95,2.94,4.13,4.85,6.55-1.5-.53-3.86-1.17-5.23-1.94-21.84-12.3-34.13-41.42-27.78-65.71.07-.25.17-.5.29-.87,2.19,3.47,4.14,6.96,6.46,10.2,9.37,13.12,20.92,24.2,33.76,33.77,11.17,8.32,23.02,15.74,34.56,23.57.47.32.97.66,1.28,1.11,5.97,8.42,10.12,16.85,16.05,25.29.25.36.93,1.19.99,1.32Z"></path><path class="cls-2" d="M545.36,297.3c-7.31,14.95-14.51,29.99-24.22,43.69,2.36-10.24,2.86-20.48,1.33-30.82-.14-.92.26-2.08.75-2.92,11.87-20.19,23.79-40.35,35.7-60.51.05-.08.53-.95.53-.95.78,3.89,1.78,7.95,2.4,11.63,3.42,20.21,3.12,40.23-3.77,59.76-1.61,4.57-4.06,8.85-6.19,13.23-.31.65-.89,1.26-1.5,1.66-9,5.99-18.02,11.93-27.05,17.88-.12.08-.21.18-1.42.84,10.15-16.62,18.96-34.6,23.44-53.49Z"></path><path class="cls-2" d="M185.18,340.81c-9.54-13.51-17.33-28.68-24.31-43.45,4.56,18.8,12.43,36.16,22.55,52.78-1.31-.8-2.64-1.57-3.92-2.41-7.91-5.21-15.81-10.43-23.7-15.68-.69-.46-1.36-1.09-1.76-1.8-6.85-12.12-10.28-25.22-11.32-39.06-1.11-14.73.17-29.23,3.57-43.57.08-.34.26-1.16.43-1.85.49.77.63,1.17.8,1.45,11.61,19.69,23.24,39.36,34.74,59.11.89,1.52,1.47,3.64,1.22,5.34-1.32,9.23-.75,18.32,1.23,27.38.08.36.3,1.04.46,1.77Z"></path><path class="cls-2" d="M444.06,417.29c6.91-7.1,10.44-13.78,12.81-19.23l1.25-2.51c-3.39,3.75-8.37,9.98-12.15,13.29-5.45,4.77-11.27,9.16-17.2,13.33-2.35,1.65-5.4,2.35-8.17,3.38-12.94,4.83-25.09,11.25-36.92,18.33-.29.17-1.94.94-2.25,1.09l1.1-1.74c4.08-6.05,7.98-11.39,11.77-17.61,4.71-7.74,12.43-11.62,19.58-16.3,16.86-11.03,32.96-23.04,46.53-38.01,6.18-6.82,11.4-14.5,16.85-21.53,3.75,17.22.54,33.8-9.94,48.82-5.71,8.18-13.44,14.97-23.27,18.7Z"></path><path class="cls-2" d="M319.83,420.18c1.26.94,3.15,2.32,4.32,3.28,7.65,6.79,15.11,13.11,22.65,20.02,2.11,1.93,4.05,4.05,6.22,6.24,10.92-10.08,20.46-19.47,31.87-29.08,2.94-2.24,5.57-4.28,5.57-4.28-.79,2.46-4.89,9.87-6.19,12.2-7.55,13.5-16.51,23.96-27.42,34.99-3.36,3.4-4.51,3.69-7.66,0-7.07-8.28-13.83-14.69-20.35-23.41-3.24-4.33-5.69-9.28-8.31-14.05-.83-1.5-3.51-6.77-4.31-8.69,0,0,2.43,1.88,3.61,2.77Z"></path><path class="cls-2" d="M353.04,393.9c6.17,10.05,12.05,19.61,17.84,29.03-6.07,6.07-11.98,11.99-17.98,17.99-5.69-5.9-11.43-11.86-17.47-18.11,5.52-9.06,11.37-18.67,17.6-28.91Z"></path></g><g><rect class="cls-2" x="347.34" y="297.85" width="11.37" height="74.78" transform="translate(688.27 -17.78) rotate(90)"></rect><rect class="cls-2" x="426.41" y="308.96" width="11.37" height="52.56" rx="1.32" ry="1.32" transform="translate(864.18 670.49) rotate(180)"></rect><rect class="cls-2" x="410.62" y="303.33" width="11.37" height="63.82" rx="1.32" ry="1.32" transform="translate(832.6 670.49) rotate(180)"></rect><rect class="cls-2" x="394.83" y="298.22" width="11.37" height="74.05" rx="1.32" ry="1.32" transform="translate(801.03 670.49) rotate(180)"></rect><path class="cls-2" d="M441.55,330.2h11.37v8.77c0,.73-.59,1.32-1.32,1.32h-8.72c-.73,0-1.32-.59-1.32-1.32v-8.77h0Z" transform="translate(111.99 782.48) rotate(-90)"></path><rect class="cls-2" x="268.27" y="308.96" width="11.37" height="52.56" rx="1.32" ry="1.32"></rect><rect class="cls-2" x="284.06" y="303.33" width="11.37" height="63.82" rx="1.32" ry="1.32"></rect><rect class="cls-2" x="299.85" y="298.22" width="11.37" height="74.05" rx="1.32" ry="1.32"></rect><path class="cls-2" d="M253.12,330.2h11.37v8.77c0,.73-.59,1.32-1.32,1.32h-8.72c-.73,0-1.32-.59-1.32-1.32v-8.77h0Z" transform="translate(594.05 76.44) rotate(90)"></path></g></g></g></g></svg>